<?xml version="1.0" encoding="UTF-8"?>
<svg width="48px" height="48px" viewBox="0 0 48 48" version="1.1" xmlns="http://www.w3.org/2000/svg" xmlns:xlink="http://www.w3.org/1999/xlink">
    <!-- Generator: Sketch 51.2 (57519) - http://www.bohemiancoding.com/sketch -->
    <title>Play</title>
    <desc>Created with Sketch.</desc>
    <defs></defs>
    <g id="Play" stroke="none" stroke-width="1" fill="none" fill-rule="evenodd" fill-opacity="0.54">
        <path d="M36.2431167,23.5655696 L18.27645,12.1322362 C18.0257333,11.973694 17.7023333,11.9561629 17.4344667,12.0880273 C17.1674167,12.2198918 17,12.4790473 17,12.7618318 L17,35.6284985 C17,35.9112829 17.1674167,36.1704385 17.4352833,36.3023029 C17.5545167,36.3617562 17.686,36.3907207 17.8166667,36.3907207 C17.97755,36.3907207 18.1384333,36.3457496 18.27645,36.258094 L36.2431167,24.8247607 C36.4660667,24.6829873 36.6,24.4474607 36.6,24.1951651 C36.6,23.9428696 36.4660667,23.7073429 36.2431167,23.5655696 Z M18.6333333,34.1856118 L18.6333333,14.2047185 L34.33375,24.1951651 L18.6333333,34.1856118 Z" id="Shape" fill="#000000" fill-rule="nonzero"></path>
        <path d="M24,0 C10.7664,0 0,10.7664 0,24 C0,37.2336 10.7664,48 24,48 C37.2336,48 48,37.2336 48,24 C48,10.7664 37.2336,0 24,0 Z M24,46.4 C11.6488,46.4 1.6,36.3512 1.6,24 C1.6,11.6488 11.6488,1.6 24,1.6 C36.3512,1.6 46.4,11.6488 46.4,24 C46.4,36.3512 36.3512,46.4 24,46.4 Z" id="Shape" fill="#000000" fill-rule="nonzero"></path>
    </g>
</svg>